<?xml version="1.0" encoding="utf-8"?>
<!-- Generator: Adobe Illustrator 24.3.0, SVG Export Plug-In . SVG Version: 6.00 Build 0)  -->
<svg version="1.1" id="图层_1" xmlns="http://www.w3.org/2000/svg" xmlns:xlink="http://www.w3.org/1999/xlink" x="0px" y="0px"
	 viewBox="0 0 30 30" style="enable-background:new 0 0 30 30;" xml:space="preserve">
<style type="text/css">
	.st0{fill:#FFFFFF;}
</style>
<g>
	<path class="st0" d="M15.15,3.97c-6.27,0-11.36,5.11-11.38,11.42c-0.02,6.26,5.1,11.39,11.37,11.39c6.29,0,11.4-5.1,11.41-11.39
		C26.56,9.12,21.43,3.98,15.15,3.97z M15.12,25.18c-5.46-0.04-9.78-4.42-9.75-9.87c0.03-5.29,4.3-9.74,9.79-9.73
		c5.46,0.01,9.81,4.41,9.78,9.84C24.9,20.86,20.52,25.22,15.12,25.18z"/>
	<path class="st0" d="M19.82,20.32c-0.3,0.2-0.67,0.16-0.97-0.13c-0.77-0.75-1.54-1.51-2.3-2.27c-0.63-0.62-1.26-1.24-1.86-1.88
		c-0.16-0.18-0.31-0.46-0.31-0.69c-0.02-2.28-0.01-4.56-0.01-6.85c0-0.33,0.13-0.58,0.42-0.73c0.28-0.15,0.56-0.11,0.82,0.06
		c0.3,0.19,0.35,0.49,0.35,0.81c0,1.02,0,2.04,0,3.06c0,1.02-0.01,2.04,0.01,3.06c0,0.17,0.09,0.38,0.21,0.5
		c1.19,1.21,2.39,2.41,3.59,3.61c0.15,0.15,0.3,0.32,0.38,0.52C20.29,19.74,20.14,20.11,19.82,20.32z"/>
</g>
</svg>
