<?xml version="1.0" encoding="utf-8"?>
<!-- Generator: Adobe Illustrator 24.3.0, SVG Export Plug-In . SVG Version: 6.00 Build 0)  -->
<svg version="1.1" id="图层_1" xmlns="http://www.w3.org/2000/svg" xmlns:xlink="http://www.w3.org/1999/xlink" x="0px" y="0px"
	 viewBox="0 0 30 30" style="enable-background:new 0 0 30 30;" xml:space="preserve">
<style type="text/css">
	.st0{fill:#FFFFFF;}
</style>
<g>
	<path class="st0" d="M22.85,6.01c-0.24,0-0.49,0-0.75,0V4.89c0-0.61-0.25-0.86-0.86-0.87c-0.99-0.01-1.98-0.01-2.97,0
		c-0.65,0-0.89,0.26-0.9,0.91c0,0.35,0,0.71,0,1.06h-4.73c0-0.4,0-0.78,0-1.16c-0.01-0.52-0.27-0.81-0.78-0.81
		c-1.05-0.01-2.09-0.01-3.14,0C8.16,4.03,7.9,4.32,7.9,4.87c0,0.37,0,0.74,0,1.14c-0.36,0-0.69-0.01-1.01,0
		c-0.84,0.02-1.54,0.34-2.09,1C4.3,7.6,4.16,8.28,4.16,9.02c0,4.9,0,9.81,0,14.71c0,0.16,0.01,0.31,0.02,0.47
		c0.12,1.46,1.27,2.53,2.73,2.53c5.32,0,10.64,0,15.96,0c1.5,0,2.72-1.22,2.72-2.73c0-5.07,0-10.15,0-15.22
		C25.59,7.24,24.41,6.04,22.85,6.01z M18.88,5.53h1.7v2.45h-1.7V5.53z M9.42,5.53h1.7v2.45h-1.7V5.53z M22.67,25.25
		c-5.18,0-10.37,0-15.56,0c-0.97,0-1.46-0.49-1.46-1.45c0-3.36,0-6.73,0-10.09v-0.44h18.46v0.38c0,3.39,0,6.77,0,10.16
		C24.11,24.74,23.6,25.25,22.67,25.25z M24.1,11.65c0,0.02-0.01,0.04-0.03,0.09H5.67c-0.01-0.09-0.02-0.17-0.02-0.26
		c0-0.85-0.01-1.71,0-2.56c0-0.9,0.5-1.4,1.39-1.41c0.27,0,0.54,0,0.85,0c0,0.39,0,0.76,0,1.12c0,0.59,0.28,0.87,0.86,0.88
		c1.01,0.01,2.03,0.01,3.04,0c0.55,0,0.83-0.28,0.84-0.84c0-0.37,0-0.74,0-1.14h4.73c0,0.34,0,0.69,0,1.03
		c0,0.69,0.25,0.95,0.93,0.95c0.96,0,1.91,0,2.87,0c0.69,0,0.93-0.25,0.93-0.94c0-0.34,0-0.67,0-1.01c1.31-0.26,2.06,0.3,2.02,1.52
		C24.08,9.94,24.1,10.8,24.1,11.65z"/>
	<rect x="12.94" y="14.95" class="st0" width="3.6" height="3.53"/>
	<rect x="7.43" y="14.96" class="st0" width="3.6" height="3.51"/>
	<rect x="7.43" y="20.02" class="st0" width="3.6" height="3.51"/>
	<rect x="18.55" y="14.95" class="st0" width="3.6" height="3.52"/>
</g>
</svg>
