<?xml version="1.0" encoding="utf-8"?>
<!-- Generator: Adobe Illustrator 26.2.1, SVG Export Plug-In . SVG Version: 6.00 Build 0)  -->
<svg version="1.1" id="图层_1" xmlns="http://www.w3.org/2000/svg" xmlns:xlink="http://www.w3.org/1999/xlink" x="0px" y="0px"
	 viewBox="0 0 1000 1000" style="enable-background:new 0 0 1000 1000;" xml:space="preserve">
<style type="text/css">
	.st0{fill:#42FEA1;}
	.st1{fill:#FE7607;}
	.st2{fill:#07E0FE;}
	.st3{fill:#F648FE;}
	.st4{fill:#272727;}
</style>
<g>
	<path class="st0" d="M501.84,781.58c-155.92,0.06-282.32-125.81-282.48-281.29c-0.15-156.44,126.34-283.24,282.43-283.15
		c155.89,0.09,282.03,126.56,281.99,282.72C783.75,655.62,657.74,781.52,501.84,781.58z"/>
	<path class="st1" d="M986.29,474.03c0,16.77,0,33.55,0,50.31c-12.8,175.89-95.83,308.24-246.82,398.6
		c-5.65,3.37-7.63,2.24-10.49-3.22c-26-49.81-52.24-99.5-78.64-149.11c-2.84-5.34-3.04-7.67,2.98-11.31
		c82.95-50.38,133.14-123.47,146.61-219.66c22.13-157.98-85.74-306.76-242.03-336c-14.95-2.79-30.04-4.92-45.28-4.84
		c-5.15,0.03-6.29-1.79-6.28-6.6c0.15-57.05,0.18-114.1-0.03-171.14c-0.02-5.62,1.88-6.58,6.95-6.5
		c71.6,1.08,139.75,17.24,203.27,49.9c143.69,73.89,231.29,190.72,262.95,349.24C983.42,433.55,985.49,453.76,986.29,474.03z"/>
	<path class="st2" d="M502.07,984.2C274.82,985.74,75.06,825.3,27.42,603.98c-9.3-43.2-11.39-86.73-10.55-130.66
		c0.12-6.38,3.54-5.47,7.31-5.19c28.54,2.11,57.09,4.23,85.63,6.4c27.78,2.11,55.54,4.49,83.34,6.29c6.6,0.43,8.08,2.55,7.83,9.07
		c-5.12,139.17,86.78,260.53,215.06,298.27c73.19,21.53,144.68,15.74,213.87-16.43c5.62-2.61,7.85-2.23,10.78,3.41
		c26.1,50.05,52.44,99.99,79.02,149.78c3.07,5.74,2.05,7.62-3.54,10.31c-62.9,30.31-128.91,47.72-198.92,48.99
		C512.19,984.28,507.14,984.2,502.07,984.2z"/>
	<path class="st3" d="M495.06,106.53c0,28.14-0.14,56.28,0.11,84.41c0.05,5.65-1.18,7.67-7.41,7.97
		c-68.9,3.34-129.81,27.36-182.09,72.36c-54.85,47.21-88.17,106.89-101.06,178.05c-0.58,3.24-1.02,6.49-1.56,9.74
		c-1.79,10.98-1.82,11.31-13.32,10.48c-45.18-3.31-90.35-6.86-135.52-10.28c-9.09-0.69-18.19-1.83-27.27-1.71
		c-7.12,0.09-9.18-2.18-8.29-9.18c4.02-31.94,9.99-63.45,19.71-94.18c26.84-84.85,73.43-157.13,139.64-216.37
		c70.24-62.85,152.1-102.14,245.33-117.27c21.52-3.5,43.11-5.91,64.94-6.02c5.27-0.03,6.92,1.45,6.87,6.81
		C494.92,49.74,495.06,78.13,495.06,106.53z"/>
	<g>
		<path class="st4" d="M376.04,557.22l0.56,11.97h-1.28c-1.53-3.56-3.12-5.99-4.75-7.28c-1.63-1.3-3.27-1.95-4.9-1.95
			c-1.02,0-1.89,0.35-2.63,1.04c-0.73,0.69-1.08,1.48-1.08,2.38c0,0.67,0.24,1.33,0.75,1.95c0.79,1.02,3.04,2.78,6.72,5.27
			c3.68,2.49,6.09,4.6,7.25,6.34c1.16,1.74,1.74,3.68,1.74,5.83c0,1.95-0.49,3.86-1.47,5.74c-0.98,1.88-2.35,3.31-4.12,4.32
			c-1.77,1.01-3.74,1.5-5.89,1.5c-1.68,0-3.91-0.52-6.72-1.57c-0.75-0.27-1.27-0.41-1.54-0.41c-0.82,0-1.51,0.63-2.06,1.88h-1.24
			l-0.6-12.6h1.27c1.13,3.3,2.67,5.77,4.63,7.42c1.95,1.65,3.82,2.47,5.57,2.47c1.21,0,2.18-0.37,2.95-1.11
			c0.76-0.73,1.15-1.63,1.15-2.69c0-1.21-0.38-2.24-1.13-3.11c-0.75-0.87-2.43-2.2-5.02-3.97c-3.83-2.66-6.31-4.67-7.42-6.08
			c-1.65-2.05-2.47-4.32-2.47-6.8c0-2.7,0.93-5.15,2.79-7.33c1.86-2.18,4.55-3.28,8.08-3.28c1.89,0,3.74,0.46,5.51,1.39
			c0.67,0.38,1.22,0.57,1.65,0.57c0.44,0,0.81-0.09,1.08-0.27s0.72-0.72,1.31-1.59h1.31V557.22z"/>
		<path class="st4" d="M410.42,574.48h-19.24c0.23,4.66,1.47,8.32,3.71,11.02c1.73,2.08,3.8,3.11,6.23,3.11
			c1.5,0,2.87-0.41,4.09-1.25c1.22-0.84,2.53-2.35,3.94-4.52l1.27,0.82c-1.89,3.88-4,6.63-6.31,8.23c-2.31,1.62-4.96,2.41-7.99,2.41
			c-5.21,0-9.15-2-11.82-6c-2.15-3.22-3.22-7.22-3.22-12c0-5.85,1.59-10.51,4.75-13.97c3.16-3.47,6.87-5.19,11.12-5.19
			c3.56,0,6.63,1.45,9.25,4.37C408.81,564.43,410.22,568.75,410.42,574.48z M401.18,571.97c0-4.03-0.21-6.8-0.66-8.29
			c-0.44-1.5-1.11-2.64-2.05-3.42c-0.52-0.44-1.22-0.67-2.11-0.67c-1.3,0-2.37,0.64-3.19,1.91c-1.48,2.23-2.21,5.28-2.21,9.16v1.31
			H401.18z"/>
		<path class="st4" d="M426.28,558.2v7.96c2.32-3.63,4.37-6.03,6.11-7.22c1.76-1.19,3.44-1.79,5.07-1.79c1.4,0,2.52,0.43,3.36,1.3
			s1.25,2.08,1.25,3.66c0,1.68-0.41,2.98-1.22,3.89c-0.81,0.93-1.8,1.39-2.95,1.39c-1.33,0-2.47-0.43-3.45-1.27
			c-0.98-0.84-1.56-1.33-1.73-1.42c-0.24-0.15-0.53-0.23-0.86-0.23c-0.73,0-1.42,0.27-2.06,0.82c-1.02,0.86-1.8,2.06-2.32,3.63
			c-0.79,2.43-1.21,5.1-1.21,8.03v8.06l0.03,2.11c0,1.42,0.09,2.34,0.26,2.73c0.31,0.67,0.75,1.18,1.33,1.48
			c0.58,0.32,1.59,0.5,2.98,0.58v1.34h-18.95v-1.34c1.53-0.12,2.55-0.55,3.1-1.25c0.53-0.72,0.81-2.6,0.81-5.65v-19.39
			c0-2-0.11-3.28-0.31-3.83c-0.24-0.7-0.61-1.21-1.08-1.54c-0.47-0.32-1.31-0.55-2.52-0.67v-1.39L426.28,558.2L426.28,558.2z"/>
		<path class="st4" d="M458.59,594.33l-11.82-27.2c-1.42-3.28-2.53-5.34-3.34-6.23c-0.58-0.66-1.42-1.08-2.55-1.31v-1.39h18.64v1.39
			c-1.18,0-1.97,0.21-2.4,0.64c-0.6,0.55-0.9,1.21-0.9,1.95c0,0.93,0.55,2.66,1.65,5.22l5.77,13.16l4.61-11.36
			c1.33-3.25,1.99-5.56,1.99-6.9c0-0.78-0.27-1.4-0.84-1.89s-1.56-0.76-2.98-0.81v-1.39h11.48v1.39c-1.1,0.15-2,0.56-2.7,1.24
			c-0.7,0.67-1.76,2.66-3.15,5.97l-11.71,27.53h-1.76V594.33z"/>
		<path class="st4" d="M491.79,558.2v27.79c0,2.47,0.29,4.06,0.86,4.75c0.58,0.69,1.69,1.08,3.37,1.18v1.34h-18.95v-1.34
			c1.56-0.05,2.7-0.5,3.45-1.34c0.5-0.58,0.75-2.11,0.75-4.58v-20.48c0-2.47-0.29-4.06-0.87-4.75c-0.58-0.69-1.69-1.08-3.34-1.18
			v-1.39L491.79,558.2L491.79,558.2z M486.54,541.21c1.62,0,3.01,0.56,4.12,1.71c1.13,1.15,1.69,2.5,1.69,4.11s-0.56,2.96-1.71,4.09
			c-1.15,1.13-2.5,1.69-4.11,1.69c-1.6,0-2.96-0.56-4.09-1.69c-1.13-1.13-1.69-2.49-1.69-4.09s0.56-2.98,1.69-4.11
			C483.57,541.79,484.93,541.21,486.54,541.21z"/>
		<path class="st4" d="M525,584.24l1.16,0.9c-1.65,3.1-3.71,5.41-6.17,6.92c-2.46,1.51-5.08,2.28-7.86,2.28
			c-4.67,0-8.41-1.76-11.22-5.28c-2.79-3.53-4.2-7.76-4.2-12.72c0-4.78,1.27-8.98,3.83-12.6c3.07-4.38,7.31-6.57,12.72-6.57
			c3.62,0,6.5,0.92,8.64,2.73c2.14,1.82,3.21,3.86,3.21,6.11c0,1.42-0.43,2.57-1.3,3.42c-0.86,0.86-2,1.27-3.39,1.27
			c-1.48,0-2.7-0.49-3.66-1.47c-0.96-0.98-1.56-2.72-1.79-5.22c-0.15-1.57-0.52-2.67-1.08-3.3c-0.58-0.63-1.25-0.93-2.03-0.93
			c-1.21,0-2.23,0.64-3.07,1.91c-1.3,1.92-1.95,4.87-1.95,8.86c0,3.3,0.52,6.46,1.57,9.47c1.05,3.01,2.49,5.25,4.32,6.73
			c1.37,1.07,3.01,1.62,4.87,1.62c1.22,0,2.38-0.29,3.5-0.86C522.19,586.92,523.49,585.84,525,584.24z"/>
		<path class="st4" d="M557.11,574.48h-19.24c0.23,4.66,1.47,8.32,3.71,11.02c1.73,2.08,3.8,3.11,6.23,3.11
			c1.5,0,2.87-0.41,4.09-1.25c1.22-0.84,2.53-2.35,3.94-4.52l1.27,0.82c-1.89,3.88-4,6.63-6.31,8.23c-2.31,1.62-4.96,2.41-7.99,2.41
			c-5.21,0-9.15-2-11.82-6c-2.15-3.22-3.22-7.22-3.22-12c0-5.85,1.59-10.51,4.75-13.97c3.16-3.47,6.87-5.19,11.12-5.19
			c3.56,0,6.63,1.45,9.25,4.37C555.51,564.43,556.92,568.75,557.11,574.48z M547.89,571.97c0-4.03-0.21-6.8-0.66-8.29
			c-0.44-1.5-1.11-2.64-2.05-3.42c-0.52-0.44-1.22-0.67-2.11-0.67c-1.3,0-2.37,0.64-3.19,1.91c-1.48,2.23-2.21,5.28-2.21,9.16v1.31
			H547.89z"/>
		<path class="st4" d="M589.94,561.88v24.34c0,2.35,0.24,3.83,0.75,4.43c0.79,0.93,2.28,1.34,4.43,1.27v1.34h-20.68v-1.34
			c1.57-0.03,2.69-0.2,3.36-0.55c0.66-0.34,1.11-0.81,1.37-1.4c0.24-0.6,0.38-1.85,0.38-3.76v-24.34h-5.1v-3.68h5.1v-2.6l-0.03-1.77
			c0-3.6,1.31-6.6,3.95-9.01c2.64-2.4,6.21-3.6,10.7-3.6c3.07,0,5.36,0.58,6.84,1.73s2.23,2.43,2.23,3.83
			c0,1.13-0.46,2.11-1.39,2.93c-0.93,0.82-2.15,1.24-3.68,1.24c-1.3,0-2.34-0.34-3.1-1.01s-1.15-1.42-1.15-2.24
			c0-0.23,0.08-0.69,0.23-1.39c0.09-0.43,0.15-0.82,0.15-1.21c0-0.52-0.15-0.92-0.44-1.16c-0.4-0.38-0.89-0.57-1.47-0.57
			c-0.73,0-1.33,0.31-1.82,0.9c-0.49,0.6-0.73,1.56-0.73,2.89l0.08,6.57v4.46h5.18v3.68h-5.18V561.88z"/>
		<path class="st4" d="M626.79,574.48h-19.24c0.23,4.66,1.47,8.32,3.71,11.02c1.73,2.08,3.8,3.11,6.23,3.11
			c1.5,0,2.87-0.41,4.09-1.25c1.22-0.84,2.53-2.35,3.94-4.52l1.27,0.82c-1.89,3.88-4,6.63-6.31,8.23c-2.31,1.62-4.96,2.41-7.99,2.41
			c-5.21,0-9.15-2-11.82-6c-2.15-3.22-3.22-7.22-3.22-12c0-5.85,1.59-10.51,4.75-13.97c3.16-3.47,6.87-5.19,11.12-5.19
			c3.56,0,6.63,1.45,9.25,4.37C625.19,564.43,626.59,568.75,626.79,574.48z M617.55,571.97c0-4.03-0.21-6.8-0.66-8.29
			c-0.44-1.5-1.11-2.64-2.05-3.42c-0.52-0.44-1.22-0.67-2.11-0.67c-1.3,0-2.37,0.64-3.19,1.91c-1.48,2.23-2.21,5.28-2.21,9.16v1.31
			H617.55z"/>
		<path class="st4" d="M657.82,574.48h-19.24c0.23,4.66,1.47,8.32,3.71,11.02c1.73,2.08,3.8,3.11,6.23,3.11
			c1.5,0,2.87-0.41,4.09-1.25c1.22-0.84,2.53-2.35,3.94-4.52l1.27,0.82c-1.89,3.88-4,6.63-6.31,8.23c-2.31,1.62-4.96,2.41-7.99,2.41
			c-5.21,0-9.15-2-11.82-6c-2.15-3.22-3.22-7.22-3.22-12c0-5.85,1.59-10.51,4.75-13.97c3.16-3.47,6.87-5.19,11.12-5.19
			c3.56,0,6.63,1.45,9.25,4.37C656.22,564.43,657.62,568.75,657.82,574.48z M648.58,571.97c0-4.03-0.21-6.8-0.66-8.29
			c-0.44-1.5-1.11-2.64-2.05-3.42c-0.52-0.44-1.22-0.67-2.11-0.67c-1.3,0-2.37,0.64-3.19,1.91c-1.48,2.23-2.21,5.28-2.21,9.16v1.31
			H648.58z"/>
	</g>
	<g>
		<path class="st4" d="M437.95,455.88c6.98,5.13,11.83,9.89,14.54,14.32c2.7,4.41,4.06,9.48,4.06,15.19c0,8-3.02,14.78-9.04,20.32
			c-6.03,5.54-14.22,8.31-24.57,8.31c-9.82,0-17.41-2.41-22.78-7.25c-5.37-4.84-8.06-10.75-8.06-17.73c0-5.31,1.54-9.99,4.66-13.99
			c3.1-4,8.26-7.67,15.48-10.98c-7.86-6-12.9-10.92-15.12-14.72c-2.23-3.8-3.33-8.23-3.33-13.25c0-6.64,2.82-12.49,8.46-17.55
			c5.63-5.05,13.36-7.57,23.18-7.57c9.47,0,16.77,2.23,21.87,6.7s7.65,9.83,7.65,16.08c0,4.69-1.37,8.83-4.14,12.41
			C448.04,449.77,443.75,453.01,437.95,455.88z M417.73,467.6c-1.51,1.37-2.6,2.61-3.22,3.74c-0.98,1.71-1.86,4.2-2.64,7.47
			c-0.78,3.27-1.18,6.69-1.18,10.25c0,4.6,0.58,8.43,1.76,11.53c1.18,3.1,2.84,5.33,5.02,6.7c2.17,1.37,4.41,2.05,6.7,2.05
			c3.56,0,6.57-1.31,9.01-3.92c2.44-2.61,3.66-6.18,3.66-10.73C436.85,485.23,430.48,476.19,417.73,467.6z M432.37,452.14
			c1.8-2.44,3.15-5.18,4.03-8.2s1.31-6.35,1.31-9.96c0-6.35-1.37-11.21-4.11-14.57c-2.05-2.58-4.89-3.88-8.49-3.88
			c-3.27,0-6.06,1.19-8.35,3.56c-2.29,2.37-3.44,5.31-3.44,8.83c0,3.56,1.28,7.27,3.85,11.1
			C419.75,442.84,424.82,447.22,432.37,452.14z"/>
		<path class="st4" d="M516.33,410.4c6.93,0,12.78,2.46,17.55,7.36c4.76,4.9,7.15,11.24,7.15,19.01c0,7.96-2.4,14.41-7.18,19.38
			s-10.72,7.44-17.8,7.44c-6.98,0-12.78-2.4-17.39-7.18c-4.61-4.78-6.92-11.09-6.92-18.9c0-8.06,2.37-14.58,7.1-19.59
			C503.56,412.89,509.4,410.4,516.33,410.4z M516.33,414.28c-1.07,0-1.95,0.32-2.64,0.95c-1.22,1.13-2.14,3.07-2.75,5.82
			c-0.61,2.76-0.92,8.46-0.92,17.1c0,6.89,0.41,12.22,1.25,15.97c0.49,2.15,1.31,3.76,2.49,4.84c0.73,0.64,1.59,0.95,2.57,0.95
			c1.07,0,1.92-0.29,2.57-0.89c1.13-1.02,1.95-2.69,2.49-4.98c0.82-3.71,1.25-8.9,1.25-15.61c0-8.2-0.4-14.14-1.18-17.8
			c-0.53-2.53-1.42-4.4-2.64-5.57C518.24,414.54,517.41,414.28,516.33,414.28z M596.54,410.4l-70.53,105.76h-9.82l70.46-105.76
			H596.54z M596.02,462.84c7.09,0,12.99,2.43,17.76,7.28s7.15,11.22,7.15,19.09c0,7.96-2.41,14.43-7.25,19.41
			c-4.84,4.98-10.67,7.47-17.5,7.47c-6.8,0-12.57-2.49-17.32-7.47c-4.76-4.98-7.15-11.38-7.15-19.19c0-7.86,2.32-14.26,6.96-19.19
			C583.3,465.3,589.09,462.84,596.02,462.84z M596.24,466.64c-0.98,0-1.8,0.29-2.49,0.89c-1.18,1.07-2.08,2.95-2.7,5.6
			c-0.64,2.66-0.95,7.76-0.95,15.27c0,8.02,0.37,13.77,1.1,17.29c0.53,2.49,1.44,4.29,2.7,5.42c0.64,0.58,1.47,0.89,2.49,0.89
			c0.93,0,1.68-0.27,2.28-0.81c1.22-1.13,2.12-2.95,2.7-5.5c0.82-3.56,1.25-8.96,1.25-16.19c0-7.62-0.4-13.18-1.18-16.71
			c-0.58-2.53-1.47-4.32-2.64-5.34C598.22,466.92,597.37,466.64,596.24,466.64z"/>
	</g>
	<g>
		<path class="st4" d="M844.49,490.23v-1.76c3.82-1.1,6.46-2.14,7.93-3.08c1.47-0.95,2.75-2.41,3.82-4.37
			c1.07-1.95,1.6-3.94,1.6-5.94c0-2.78-1.01-5.16-3.04-7.15c-2.03-1.99-4.54-2.99-7.56-2.99c-4.69,0-8.66,2.47-11.94,7.42
			l-1.86-0.66c2.41-5.59,5.5-9.79,9.25-12.6c3.76-2.81,7.96-4.21,12.57-4.21c4.72,0,8.61,1.44,11.67,4.32
			c3.05,2.87,4.6,6.25,4.6,10.09c0,2.5-0.72,4.93-2.14,7.25c-1.42,2.32-3.65,4.37-6.7,6.15c3.91,1.91,6.9,4.26,8.96,7.05
			c2.06,2.79,3.08,6.29,3.08,10.51c0,7.1-2.57,13.12-7.7,18.09c-5.13,4.96-12.02,7.45-20.64,7.45c-5.76,0-9.96-0.95-12.6-2.86
			c-1.91-1.34-2.86-3.05-2.86-5.18c0-1.54,0.55-2.86,1.65-3.94c1.1-1.08,2.38-1.63,3.82-1.63c1.1,0,2.14,0.23,3.11,0.7
			c0.53,0.27,2.43,1.73,5.7,4.4c3.27,2.66,6.32,3.99,9.16,3.99c2.47,0,4.6-0.98,6.37-2.93c1.77-1.95,2.66-4.44,2.66-7.45
			c0-4.58-1.6-8.81-4.81-12.67C855.4,494.37,850.69,491.72,844.49,490.23z"/>
		<path class="st4" d="M900.56,454.76c4.75,0,8.75,1.68,12.02,5.04c3.27,3.36,4.89,7.7,4.89,13.03c0,5.45-1.63,9.88-4.92,13.27
			c-3.28,3.39-7.34,5.1-12.2,5.1c-4.78,0-8.75-1.63-11.93-4.92c-3.16-3.28-4.75-7.59-4.75-12.95c0-5.53,1.62-9.99,4.87-13.42
			C891.81,456.47,895.81,454.76,900.56,454.76z M900.56,457.42c-0.73,0-1.34,0.21-1.8,0.66c-0.84,0.76-1.47,2.11-1.88,3.99
			c-0.41,1.89-0.63,5.8-0.63,11.71c0,4.72,0.29,8.37,0.86,10.93c0.34,1.47,0.9,2.58,1.71,3.31c0.5,0.43,1.08,0.66,1.76,0.66
			c0.73,0,1.33-0.2,1.76-0.6c0.76-0.7,1.34-1.83,1.71-3.41c0.57-2.55,0.86-6.11,0.86-10.69c0-5.62-0.27-9.68-0.81-12.2
			c-0.37-1.74-0.98-3.01-1.8-3.82C901.86,457.6,901.3,457.42,900.56,457.42z M955.5,454.76l-48.33,72.47h-6.72l48.28-72.47H955.5z
			 M955.15,490.69c4.86,0,8.9,1.66,12.17,4.99c3.27,3.33,4.89,7.68,4.89,13.07c0,5.45-1.65,9.88-4.96,13.3
			c-3.31,3.41-7.31,5.12-11.99,5.12c-4.66,0-8.61-1.71-11.86-5.12c-3.27-3.42-4.89-7.79-4.89-13.15c0-5.39,1.59-9.77,4.76-13.15
			C946.45,492.37,950.4,490.69,955.15,490.69z M955.31,493.3c-0.67,0-1.24,0.2-1.71,0.6c-0.81,0.73-1.42,2.02-1.86,3.83
			c-0.44,1.82-0.66,5.31-0.66,10.46c0,5.48,0.24,9.44,0.75,11.85c0.37,1.71,0.99,2.95,1.86,3.71c0.43,0.4,1.01,0.6,1.71,0.6
			c0.64,0,1.16-0.18,1.56-0.55c0.84-0.76,1.45-2.03,1.86-3.76c0.56-2.44,0.86-6.14,0.86-11.09c0-5.22-0.27-9.04-0.81-11.44
			c-0.4-1.74-1.01-2.96-1.8-3.66C956.67,493.49,956.09,493.3,955.31,493.3z"/>
	</g>
	<g>
		<path class="st4" d="M312.72,860.99v-1.76c3.82-1.1,6.46-2.14,7.93-3.08c1.47-0.95,2.75-2.41,3.82-4.37
			c1.07-1.95,1.6-3.94,1.6-5.94c0-2.78-1.01-5.16-3.04-7.15c-2.03-1.99-4.54-2.99-7.56-2.99c-4.69,0-8.66,2.47-11.94,7.42
			l-1.86-0.66c2.41-5.59,5.5-9.79,9.25-12.6s7.96-4.21,12.57-4.21c4.72,0,8.61,1.44,11.67,4.32c3.05,2.87,4.6,6.25,4.6,10.09
			c0,2.5-0.72,4.93-2.14,7.25c-1.42,2.32-3.65,4.37-6.7,6.15c3.91,1.91,6.9,4.26,8.96,7.05s3.08,6.29,3.08,10.51
			c0,7.1-2.57,13.12-7.7,18.09c-5.13,4.96-12.02,7.45-20.64,7.45c-5.76,0-9.96-0.95-12.6-2.86c-1.91-1.34-2.86-3.05-2.86-5.18
			c0-1.54,0.55-2.86,1.65-3.94c1.1-1.08,2.38-1.63,3.82-1.63c1.1,0,2.14,0.23,3.12,0.7c0.53,0.27,2.43,1.73,5.7,4.4
			c3.27,2.66,6.32,3.99,9.16,3.99c2.47,0,4.6-0.98,6.37-2.93c1.77-1.95,2.66-4.44,2.66-7.45c0-4.58-1.6-8.81-4.81-12.67
			C323.61,865.13,318.9,862.45,312.72,860.99z"/>
		<path class="st4" d="M368.78,825.5c4.75,0,8.75,1.68,12.02,5.04c3.27,3.36,4.89,7.7,4.89,13.03c0,5.45-1.63,9.88-4.92,13.27
			c-3.28,3.39-7.34,5.1-12.2,5.1c-4.78,0-8.75-1.63-11.93-4.92c-3.16-3.28-4.75-7.59-4.75-12.95c0-5.53,1.62-9.99,4.87-13.42
			C360.03,827.23,364.03,825.5,368.78,825.5z M368.78,828.17c-0.73,0-1.34,0.21-1.8,0.66c-0.84,0.76-1.47,2.11-1.88,3.99
			c-0.41,1.89-0.63,5.8-0.63,11.71c0,4.72,0.29,8.37,0.86,10.93c0.34,1.47,0.9,2.58,1.71,3.31c0.5,0.43,1.08,0.66,1.76,0.66
			c0.73,0,1.33-0.2,1.76-0.6c0.76-0.7,1.34-1.83,1.71-3.41c0.56-2.55,0.86-6.11,0.86-10.69c0-5.62-0.27-9.68-0.81-12.2
			c-0.37-1.74-0.98-3.01-1.8-3.82C370.09,828.36,369.51,828.17,368.78,828.17z M423.73,825.5l-48.33,72.47h-6.72l48.28-72.47H423.73
			z M423.38,861.43c4.86,0,8.9,1.66,12.17,4.99c3.27,3.33,4.89,7.68,4.89,13.07c0,5.45-1.65,9.88-4.96,13.3
			c-3.31,3.41-7.31,5.12-11.99,5.12c-4.66,0-8.61-1.71-11.86-5.12c-3.27-3.42-4.89-7.79-4.89-13.15c0-5.39,1.59-9.77,4.76-13.15
			C414.66,863.13,418.63,861.43,423.38,861.43z M423.53,864.04c-0.67,0-1.24,0.2-1.71,0.6c-0.81,0.73-1.42,2.02-1.86,3.83
			c-0.44,1.82-0.66,5.31-0.66,10.46c0,5.48,0.24,9.44,0.75,11.85c0.37,1.71,0.99,2.95,1.86,3.71c0.43,0.4,1.01,0.6,1.71,0.6
			c0.64,0,1.16-0.18,1.56-0.55c0.84-0.76,1.45-2.03,1.86-3.76c0.56-2.44,0.86-6.14,0.86-11.09c0-5.22-0.27-9.04-0.81-11.44
			c-0.4-1.74-1.01-2.96-1.8-3.66C424.89,864.24,424.3,864.04,423.53,864.04z"/>
	</g>
	<g>
		<path class="st4" d="M268.33,193.85h-40.05v-1.1c12.28-14.63,19.73-24.46,22.36-29.52s3.94-9.99,3.94-14.81
			c0-3.51-1.08-6.43-3.27-8.75c-2.17-2.32-4.84-3.48-7.99-3.48c-5.15,0-9.15,2.58-11.99,7.73l-1.86-0.66
			c1.8-6.43,4.55-11.18,8.23-14.25c3.68-3.08,7.93-4.61,12.75-4.61c3.45,0,6.6,0.81,9.44,2.41c2.84,1.6,5.07,3.8,6.67,6.6
			c1.6,2.79,2.41,5.41,2.41,7.85c0,4.44-1.24,8.96-3.71,13.54c-3.37,6.18-10.75,14.83-22.13,25.9h14.7c3.62,0,5.97-0.15,7.05-0.46
			c1.08-0.31,1.99-0.81,2.69-1.53c0.7-0.72,1.62-2.23,2.76-4.54h1.8L268.33,193.85z"/>
		<path class="st4" d="M297.04,124.25c4.75,0,8.75,1.68,12.02,5.04c3.27,3.36,4.89,7.7,4.89,13.03c0,5.45-1.63,9.88-4.92,13.27
			c-3.28,3.39-7.34,5.1-12.2,5.1c-4.78,0-8.75-1.63-11.93-4.92c-3.16-3.28-4.75-7.59-4.75-12.95c0-5.53,1.62-9.99,4.87-13.42
			C288.29,125.96,292.29,124.25,297.04,124.25z M297.04,126.9c-0.73,0-1.34,0.21-1.8,0.66c-0.84,0.76-1.47,2.11-1.88,3.99
			c-0.41,1.89-0.63,5.8-0.63,11.71c0,4.72,0.29,8.37,0.86,10.93c0.34,1.47,0.9,2.58,1.71,3.31c0.5,0.43,1.08,0.66,1.76,0.66
			c0.73,0,1.33-0.2,1.76-0.6c0.76-0.7,1.34-1.83,1.71-3.41c0.56-2.55,0.86-6.11,0.86-10.69c0-5.62-0.27-9.68-0.81-12.2
			c-0.37-1.74-0.98-3.01-1.8-3.82C298.35,127.09,297.79,126.9,297.04,126.9z M351.99,124.25l-48.33,72.47h-6.72l48.28-72.47H351.99z
			 M351.64,160.18c4.86,0,8.9,1.66,12.17,4.99c3.27,3.33,4.89,7.68,4.89,13.07c0,5.45-1.65,9.88-4.96,13.3
			c-3.31,3.41-7.31,5.12-11.99,5.12c-4.66,0-8.61-1.71-11.86-5.12c-3.27-3.42-4.89-7.79-4.89-13.15c0-5.39,1.59-9.77,4.76-13.15
			C342.92,161.87,346.89,160.18,351.64,160.18z M351.8,162.79c-0.67,0-1.24,0.2-1.71,0.6c-0.81,0.73-1.42,2.02-1.86,3.83
			c-0.44,1.82-0.66,5.31-0.66,10.46c0,5.48,0.24,9.44,0.75,11.85c0.37,1.71,0.99,2.95,1.86,3.71c0.43,0.4,1.01,0.6,1.71,0.6
			c0.64,0,1.16-0.18,1.56-0.55c0.84-0.76,1.45-2.03,1.86-3.76c0.56-2.44,0.86-6.14,0.86-11.09c0-5.22-0.27-9.04-0.81-11.44
			c-0.4-1.74-1.01-2.96-1.8-3.66C353.15,162.97,352.56,162.79,351.8,162.79z"/>
	</g>
	<g>
		<path class="st4" d="M264.18,193.85h-40.05v-1.1c12.28-14.63,19.73-24.46,22.36-29.52s3.94-9.99,3.94-14.81
			c0-3.51-1.08-6.43-3.27-8.75c-2.17-2.32-4.84-3.48-7.99-3.48c-5.15,0-9.15,2.58-11.99,7.73l-1.86-0.66
			c1.8-6.43,4.55-11.18,8.23-14.25c3.68-3.08,7.93-4.61,12.75-4.61c3.45,0,6.6,0.81,9.44,2.41c2.84,1.6,5.07,3.8,6.67,6.6
			c1.6,2.79,2.41,5.41,2.41,7.85c0,4.44-1.24,8.96-3.71,13.54c-3.37,6.18-10.75,14.83-22.13,25.9h14.7c3.62,0,5.97-0.15,7.05-0.46
			s1.99-0.81,2.69-1.53c0.7-0.72,1.62-2.23,2.76-4.54h1.8L264.18,193.85z"/>
		<path class="st4" d="M292.88,124.25c4.75,0,8.75,1.68,12.02,5.04c3.27,3.36,4.89,7.7,4.89,13.03c0,5.45-1.63,9.88-4.92,13.27
			c-3.28,3.39-7.34,5.1-12.2,5.1c-4.78,0-8.75-1.63-11.93-4.92c-3.16-3.28-4.75-7.59-4.75-12.95c0-5.53,1.62-9.99,4.87-13.42
			C284.13,125.96,288.13,124.25,292.88,124.25z M292.88,126.9c-0.73,0-1.34,0.21-1.8,0.66c-0.84,0.76-1.47,2.11-1.88,3.99
			c-0.41,1.89-0.63,5.8-0.63,11.71c0,4.72,0.29,8.37,0.86,10.93c0.34,1.47,0.9,2.58,1.71,3.31c0.5,0.43,1.08,0.66,1.76,0.66
			c0.73,0,1.33-0.2,1.76-0.6c0.76-0.7,1.34-1.83,1.71-3.41c0.56-2.55,0.86-6.11,0.86-10.69c0-5.62-0.27-9.68-0.81-12.2
			c-0.37-1.74-0.98-3.01-1.8-3.82C294.18,127.09,293.62,126.9,292.88,126.9z M347.84,124.25l-48.33,72.47h-6.72l48.28-72.47H347.84z
			 M347.49,160.18c4.86,0,8.9,1.66,12.17,4.99c3.27,3.33,4.89,7.68,4.89,13.07c0,5.45-1.65,9.88-4.96,13.3
			c-3.31,3.41-7.31,5.12-11.99,5.12c-4.66,0-8.61-1.71-11.86-5.12c-3.27-3.42-4.89-7.79-4.89-13.15c0-5.39,1.59-9.77,4.76-13.15
			C338.77,161.87,342.74,160.18,347.49,160.18z M347.64,162.79c-0.67,0-1.24,0.2-1.71,0.6c-0.81,0.73-1.42,2.02-1.86,3.83
			c-0.44,1.82-0.66,5.31-0.66,10.46c0,5.48,0.24,9.44,0.75,11.85c0.37,1.71,0.99,2.95,1.86,3.71c0.43,0.4,1.01,0.6,1.71,0.6
			c0.64,0,1.16-0.18,1.56-0.55c0.84-0.76,1.45-2.03,1.86-3.76c0.56-2.44,0.86-6.14,0.86-11.09c0-5.22-0.27-9.04-0.81-11.44
			c-0.4-1.74-1.01-2.96-1.8-3.66C348.99,162.97,348.41,162.79,347.64,162.79z"/>
	</g>
</g>
</svg>
